<svg xmlns="http://www.w3.org/2000/svg" width="50" height="50" fill="none" viewBox="0 0 50 50"><path fill="#061922" d="M15.518 15.772v-4.465l-2.89 4.465H8.493l2.557 2.442-3.205 4.954 5.186-3.062 2.488 2.377v-3.846l4.854-2.865z"/><path fill="#0050b5" d="M15.098 16.194V12.73l-2.24 3.463H9.542l2.049 1.956-2.425 3.748 3.922-2.317 2.009 1.918v-3.103l3.73-2.202z"/><path fill="#fff" d="M14.516 16.78v-2.075l-1.342 2.074h-2.172l1.342 1.282-1.342 2.074 2.172-1.282 1.342 1.282v-2.074l2.17-1.282z"/><path fill="#061922" d="M10.113 26.574v-4.136l-2.676 4.136H3.629l2.354 2.246L3 33.43l4.826-2.849 2.287 2.183v-3.532l4.503-2.658z"/><path fill="#0050b5" d="M9.692 26.995v-3.134l-2.028 3.134H4.681l1.844 1.761-2.202 3.403 3.563-2.103 1.806 1.725V28.99l3.38-1.995z"/><path fill="#fff" d="M9.139 27.552v-1.813l-1.174 1.813H6.067l1.173 1.12-1.173 1.813 1.898-1.12 1.174 1.12v-1.813l1.897-1.12z"/><path fill="#061922" d="M32.844 12.568c-1.89 0-3.703.399-5.364 1.149V9l-3.442 5.32h-4.944l3.055 2.919-.846 1.308v-1.765l-3.87 5.98h-5.687l3.515 3.357-4.207 6.501 6.807-4.018 1.125 1.074q.116.57.28 1.128h-4.068l3.037 2.843-3.923 6.063 6.55-3.867c.171-.096.286-.031.481.124.043.034.922.76.996.82 1.298 1.012 3.287 2.458 5.572 3.325 1.578.59 3.237.888 4.933.888C40.65 41 47 34.623 47 26.784c0-7.84-6.35-14.217-14.156-14.217"/><path fill="#0050b5" d="M32.844 12.989c-2.126 0-4.07.5-5.785 1.383v-3.949l-2.794 4.319h-4.12l2.547 2.431-1.81 2.797v-1.765l-3.22 4.978h-4.864l3.005 2.871-3.426 5.295 5.544-3.273 1.448 1.384q.178.905.468 1.764H16.26l2.516 2.356-3.147 4.864 5.019-2.963a.75.75 0 0 1 .363-.107c.175 0 .369.087.592.265.104.082.861.714.993.816 1.574 1.229 3.4 2.481 5.462 3.265 1.49.557 3.102.86 4.785.86 7.587 0 13.737-6.176 13.737-13.796S40.431 12.99 32.844 12.99"/><path fill="#fff" d="M32.844 13.749a12.87 12.87 0 0 0-6.481 1.743h-.05v-2.536l-1.641 2.537h-2.657l1.641 1.567-1.64 2.536.003-.001a13 13 0 0 0-1.787 4.11v-3.296l-2.218 3.427h-3.59l2.22 2.118-2.218 3.428 3.588-2.119 2.089 1.995c.147.768.363 1.51.637 2.222l-.277.51H18.2l1.567 1.467-1.732 2.675 2.227-1.314c.701-.395 1.303-.19 1.817.219.234.187 3.064 2.785 6.173 3.942 1.431.534 2.976.84 4.592.84 7.169 0 12.98-5.837 12.98-13.036 0-7.2-5.812-13.036-12.98-13.036"/><path fill="#2155a5" d="M24.1 18.775a6.3 6.3 0 0 1 3.22-.895c4.8 0 8.207 4.18 11.837 4.566-.971-3.446-3.326-6.159-6.35-7.05-1.226-.362-2.529-.285-3.74.123a11.83 11.83 0 0 0-4.968 3.256"/><path fill="#2155a5" d="M34 14.956c3.12.956 5.434 3.924 6.421 7.473 1.781-.27 2.565-1.541 1.947-2.701a11.81 11.81 0 0 0-8.369-4.773"/><path fill="#0050b5" d="M22.563 26.567s10.163-.248 17.16-.356a16.4 16.4 0 0 0-.259-2.422c-4.566-.266-7.89-4.825-12.604-4.825-2.503 0-4.184 1.48-5.091 3.626a11.954 11.954 0 0 0 .015 8.427c.906 2.146 2.572 3.609 5.075 3.609 4.715 0 8.038-4.559 12.605-4.825q.215-1.168.258-2.422c-6.997-.108-17.16-.356-17.16-.356v-.457z"/><path fill="#2155a5" d="M40.725 23.753a16.6 16.6 0 0 1 .268 2.44c1.48-.02 2.75-.032 3.668-.032a11.8 11.8 0 0 0-1.304-4.823c.024 1.173-.906 2.17-2.632 2.415M39.157 31.144c-3.63.386-7.037 4.566-11.837 4.566a6.33 6.33 0 0 1-3.171-.867q.344.376.716.72a11.8 11.8 0 0 0 4.536 2.594c1.055.321 2.184.371 3.248.082 3.099-.842 5.519-3.589 6.508-7.095"/><path fill="#2155a5" d="M42.398 33.798c.556-1.142-.228-2.372-1.976-2.636-.978 3.516-3.259 6.458-6.335 7.443a11.8 11.8 0 0 0 8.311-4.807M44.66 27.429c-.918 0-2.188-.01-3.668-.03-.03.826-.12 1.642-.268 2.438 1.722.245 2.65 1.238 2.632 2.407a11.85 11.85 0 0 0 1.305-4.812q0 0-.002-.003"/></svg>